<svg xmlns="http://www.w3.org/2000/svg" viewBox="0 0 1600 900" preserveAspectRatio="xMidYMid slice" role="img" aria-hidden="true"><defs><linearGradient id="sky" x1="0" y1="0" x2="0" y2="1"><stop offset="0%" stop-color="#3b2a10"/><stop offset="33.3%" stop-color="#8a5a14"/><stop offset="66.7%" stop-color="#f2c14e"/><stop offset="100%" stop-color="#fff3c9"/></linearGradient><radialGradient id="glow" cx="0.5" cy="0.4222222222222222" r=".55"><stop offset="0" stop-color="#ffe08a" stop-opacity=".75"/><stop offset="1" stop-color="#ffe08a" stop-opacity="0"/></radialGradient><linearGradient id="fade" x1="0" y1="0" x2="0" y2="1"><stop offset=".55" stop-color="#000" stop-opacity="0"/><stop offset="1" stop-color="#000" stop-opacity=".28"/></linearGradient></defs><rect width="1600" height="900" fill="url(#sky)"/><rect width="1600" height="900" fill="url(#glow)"/><circle cx="800" cy="380" r="110" fill="#fff8e0"/><path d="M0 900 L0 640 L0 596.2 L40 593.5 L80 591.1 L120 590.5 L160 592.6 L200 597.9 L240 606.4 L280 617.5 L320 630 L360 642.4 L400 653 L440 660.3 L480 663 L520 660.6 L560 652.9 L600 640.6 L640 624.8 L680 607.3 L720 589.7 L760 573.9 L800 561.3 L840 552.9 L880 549 L920 549.4 L960 553.2 L1000 559.2 L1040 565.9 L1080 571.9 L1120 575.9 L1160 577.4 L1200 576.1 L1240 572.5 L1280 567.4 L1320 562.3 L1360 558.5 L1400 557.4 L1440 559.9 L1480 566.7 L1520 577.7 L1560 592 L1600 608.5 L1600 900 Z" fill="#a87a2a"/><rect x="0" y="611.5" width="51.1" height="110.5" fill="#6b4a14"/><rect x="9" y="647.5" width="7" height="9" rx="1" fill="#fff3c4"/><rect x="52.8" y="576.4" width="115.9" height="145.6" fill="#6b4a14"/><rect x="151.8" y="590.4" width="7" height="9" rx="1" fill="#fff3c4"/><rect x="133.8" y="612.4" width="7" height="9" rx="1" fill="#fff3c4"/><rect x="61.8" y="634.4" width="7" height="9" rx="1" fill="#fff3c4"/><rect x="79.8" y="634.4" width="7" height="9" rx="1" fill="#fff3c4"/><rect x="97.8" y="656.4" width="7" height="9" rx="1" fill="#fff3c4"/><rect x="151.8" y="656.4" width="7" height="9" rx="1" fill="#fff3c4"/><rect x="97.8" y="678.4" width="7" height="9" rx="1" fill="#fff3c4"/><rect x="133.8" y="678.4" width="7" height="9" rx="1" fill="#fff3c4"/><rect x="133.8" y="700.4" width="7" height="9" rx="1" fill="#fff3c4"/><rect x="169.3" y="529.8" width="52.1" height="192.2" fill="#6b4a14"/><rect x="196.3" y="543.8" width="7" height="9" rx="1" fill="#fff3c4"/><rect x="178.3" y="587.8" width="7" height="9" rx="1" fill="#fff3c4"/><rect x="196.3" y="609.8" width="7" height="9" rx="1" fill="#fff3c4"/><rect x="178.3" y="631.8" width="7" height="9" rx="1" fill="#fff3c4"/><rect x="178.3" y="675.8" width="7" height="9" rx="1" fill="#fff3c4"/><rect x="225.1" y="609.8" width="120" height="112.2" fill="#6b4a14"/><rect x="252.1" y="623.8" width="7" height="9" rx="1" fill="#fff3c4"/><rect x="270.1" y="623.8" width="7" height="9" rx="1" fill="#fff3c4"/><rect x="234.1" y="667.8" width="7" height="9" rx="1" fill="#fff3c4"/><rect x="324.1" y="689.8" width="7" height="9" rx="1" fill="#fff3c4"/><rect x="349.8" y="615.9" width="69.7" height="106.1" fill="#6b4a14"/><rect x="382.2" y="589.9" width="4" height="28" fill="#6b4a14"/><rect x="358.8" y="629.9" width="7" height="9" rx="1" fill="#fff3c4"/><rect x="358.8" y="651.9" width="7" height="9" rx="1" fill="#fff3c4"/><rect x="358.8" y="695.9" width="7" height="9" rx="1" fill="#fff3c4"/><rect x="394.8" y="695.9" width="7" height="9" rx="1" fill="#fff3c4"/><rect x="418.8" y="577.1" width="60.6" height="144.9" fill="#6b4a14"/><rect x="446.6" y="551.1" width="4" height="28" fill="#6b4a14"/><rect x="427.8" y="591.1" width="7" height="9" rx="1" fill="#fff3c4"/><rect x="445.8" y="591.1" width="7" height="9" rx="1" fill="#fff3c4"/><rect x="463.8" y="635.1" width="7" height="9" rx="1" fill="#fff3c4"/><rect x="427.8" y="657.1" width="7" height="9" rx="1" fill="#fff3c4"/><rect x="445.8" y="657.1" width="7" height="9" rx="1" fill="#fff3c4"/><rect x="445.8" y="679.1" width="7" height="9" rx="1" fill="#fff3c4"/><rect x="445.8" y="701.1" width="7" height="9" rx="1" fill="#fff3c4"/><rect x="483.8" y="591.5" width="72.4" height="130.5" fill="#6b4a14"/><rect x="510.8" y="605.5" width="7" height="9" rx="1" fill="#fff3c4"/><rect x="492.8" y="649.5" width="7" height="9" rx="1" fill="#fff3c4"/><rect x="510.8" y="671.5" width="7" height="9" rx="1" fill="#fff3c4"/><rect x="492.8" y="693.5" width="7" height="9" rx="1" fill="#fff3c4"/><rect x="510.8" y="693.5" width="7" height="9" rx="1" fill="#fff3c4"/><rect x="560" y="526.5" width="105.4" height="195.5" fill="#6b4a14"/><rect x="610.2" y="500.5" width="4" height="28" fill="#6b4a14"/><rect x="569" y="540.5" width="7" height="9" rx="1" fill="#fff3c4"/><rect x="587" y="540.5" width="7" height="9" rx="1" fill="#fff3c4"/><rect x="569" y="562.5" width="7" height="9" rx="1" fill="#fff3c4"/><rect x="587" y="562.5" width="7" height="9" rx="1" fill="#fff3c4"/><rect x="569" y="584.5" width="7" height="9" rx="1" fill="#fff3c4"/><rect x="641" y="584.5" width="7" height="9" rx="1" fill="#fff3c4"/><rect x="623" y="606.5" width="7" height="9" rx="1" fill="#fff3c4"/><rect x="623" y="628.5" width="7" height="9" rx="1" fill="#fff3c4"/><rect x="623" y="650.5" width="7" height="9" rx="1" fill="#fff3c4"/><rect x="587" y="672.5" width="7" height="9" rx="1" fill="#fff3c4"/><rect x="587" y="694.5" width="7" height="9" rx="1" fill="#fff3c4"/><rect x="667.9" y="540.7" width="115.6" height="181.3" fill="#6b4a14"/><rect x="694.9" y="554.7" width="7" height="9" rx="1" fill="#fff3c4"/><rect x="712.9" y="554.7" width="7" height="9" rx="1" fill="#fff3c4"/><rect x="676.9" y="576.7" width="7" height="9" rx="1" fill="#fff3c4"/><rect x="766.9" y="576.7" width="7" height="9" rx="1" fill="#fff3c4"/><rect x="766.9" y="598.7" width="7" height="9" rx="1" fill="#fff3c4"/><rect x="712.9" y="620.7" width="7" height="9" rx="1" fill="#fff3c4"/><rect x="676.9" y="642.7" width="7" height="9" rx="1" fill="#fff3c4"/><rect x="766.9" y="642.7" width="7" height="9" rx="1" fill="#fff3c4"/><rect x="730.9" y="664.7" width="7" height="9" rx="1" fill="#fff3c4"/><rect x="676.9" y="686.7" width="7" height="9" rx="1" fill="#fff3c4"/><rect x="712.9" y="686.7" width="7" height="9" rx="1" fill="#fff3c4"/><rect x="787.9" y="544.5" width="87" height="177.5" fill="#6b4a14"/><rect x="796.9" y="558.5" width="7" height="9" rx="1" fill="#fff3c4"/><rect x="814.9" y="558.5" width="7" height="9" rx="1" fill="#fff3c4"/><rect x="832.9" y="558.5" width="7" height="9" rx="1" fill="#fff3c4"/><rect x="796.9" y="580.5" width="7" height="9" rx="1" fill="#fff3c4"/><rect x="814.9" y="580.5" width="7" height="9" rx="1" fill="#fff3c4"/><rect x="814.9" y="624.5" width="7" height="9" rx="1" fill="#fff3c4"/><rect x="832.9" y="624.5" width="7" height="9" rx="1" fill="#fff3c4"/><rect x="832.9" y="646.5" width="7" height="9" rx="1" fill="#fff3c4"/><rect x="850.9" y="646.5" width="7" height="9" rx="1" fill="#fff3c4"/><rect x="796.9" y="668.5" width="7" height="9" rx="1" fill="#fff3c4"/><rect x="850.9" y="668.5" width="7" height="9" rx="1" fill="#fff3c4"/><rect x="850.9" y="690.5" width="7" height="9" rx="1" fill="#fff3c4"/><rect x="877.9" y="559.6" width="85.8" height="162.4" fill="#6b4a14"/><rect x="918.3" y="533.6" width="4" height="28" fill="#6b4a14"/><rect x="904.9" y="595.6" width="7" height="9" rx="1" fill="#fff3c4"/><rect x="904.9" y="639.6" width="7" height="9" rx="1" fill="#fff3c4"/><rect x="922.9" y="639.6" width="7" height="9" rx="1" fill="#fff3c4"/><rect x="940.9" y="639.6" width="7" height="9" rx="1" fill="#fff3c4"/><rect x="904.9" y="661.6" width="7" height="9" rx="1" fill="#fff3c4"/><rect x="940.9" y="661.6" width="7" height="9" rx="1" fill="#fff3c4"/><rect x="904.9" y="705.6" width="7" height="9" rx="1" fill="#fff3c4"/><rect x="962.9" y="499.3" width="60.7" height="222.7" fill="#6b4a14"/><rect x="989.9" y="513.3" width="7" height="9" rx="1" fill="#fff3c4"/><rect x="989.9" y="535.3" width="7" height="9" rx="1" fill="#fff3c4"/><rect x="971.9" y="557.3" width="7" height="9" rx="1" fill="#fff3c4"/><rect x="989.9" y="557.3" width="7" height="9" rx="1" fill="#fff3c4"/><rect x="989.9" y="623.3" width="7" height="9" rx="1" fill="#fff3c4"/><rect x="989.9" y="645.3" width="7" height="9" rx="1" fill="#fff3c4"/><rect x="1007.9" y="645.3" width="7" height="9" rx="1" fill="#fff3c4"/><rect x="971.9" y="667.3" width="7" height="9" rx="1" fill="#fff3c4"/><rect x="989.9" y="667.3" width="7" height="9" rx="1" fill="#fff3c4"/><rect x="1024.4" y="559.8" width="114.5" height="162.2" fill="#6b4a14"/><rect x="1123.4" y="573.8" width="7" height="9" rx="1" fill="#fff3c4"/><rect x="1069.4" y="595.8" width="7" height="9" rx="1" fill="#fff3c4"/><rect x="1105.4" y="595.8" width="7" height="9" rx="1" fill="#fff3c4"/><rect x="1051.4" y="639.8" width="7" height="9" rx="1" fill="#fff3c4"/><rect x="1033.4" y="661.8" width="7" height="9" rx="1" fill="#fff3c4"/><rect x="1051.4" y="661.8" width="7" height="9" rx="1" fill="#fff3c4"/><rect x="1069.4" y="661.8" width="7" height="9" rx="1" fill="#fff3c4"/><rect x="1105.4" y="661.8" width="7" height="9" rx="1" fill="#fff3c4"/><rect x="1123.4" y="661.8" width="7" height="9" rx="1" fill="#fff3c4"/><rect x="1069.4" y="683.8" width="7" height="9" rx="1" fill="#fff3c4"/><rect x="1123.4" y="683.8" width="7" height="9" rx="1" fill="#fff3c4"/><rect x="1033.4" y="705.8" width="7" height="9" rx="1" fill="#fff3c4"/><rect x="1051.4" y="705.8" width="7" height="9" rx="1" fill="#fff3c4"/><rect x="1069.4" y="705.8" width="7" height="9" rx="1" fill="#fff3c4"/><rect x="1123.4" y="705.8" width="7" height="9" rx="1" fill="#fff3c4"/><rect x="1138.3" y="620.3" width="84" height="101.7" fill="#6b4a14"/><rect x="1177.8" y="594.3" width="4" height="28" fill="#6b4a14"/><rect x="1165.3" y="634.3" width="7" height="9" rx="1" fill="#fff3c4"/><rect x="1201.3" y="634.3" width="7" height="9" rx="1" fill="#fff3c4"/><rect x="1224.7" y="604.4" width="71.7" height="117.6" fill="#6b4a14"/><rect x="1269.7" y="640.4" width="7" height="9" rx="1" fill="#fff3c4"/><rect x="1233.7" y="662.4" width="7" height="9" rx="1" fill="#fff3c4"/><rect x="1251.7" y="662.4" width="7" height="9" rx="1" fill="#fff3c4"/><rect x="1233.7" y="684.4" width="7" height="9" rx="1" fill="#fff3c4"/><rect x="1251.7" y="684.4" width="7" height="9" rx="1" fill="#fff3c4"/><rect x="1269.7" y="684.4" width="7" height="9" rx="1" fill="#fff3c4"/><rect x="1298.5" y="629.2" width="57.7" height="92.8" fill="#6b4a14"/><rect x="1307.5" y="643.2" width="7" height="9" rx="1" fill="#fff3c4"/><rect x="1325.5" y="643.2" width="7" height="9" rx="1" fill="#fff3c4"/><rect x="1359.3" y="631.5" width="105.7" height="90.5" fill="#6b4a14"/><rect x="1386.3" y="645.5" width="7" height="9" rx="1" fill="#fff3c4"/><rect x="1422.3" y="645.5" width="7" height="9" rx="1" fill="#fff3c4"/><rect x="1386.3" y="667.5" width="7" height="9" rx="1" fill="#fff3c4"/><rect x="1368.3" y="689.5" width="7" height="9" rx="1" fill="#fff3c4"/><rect x="1404.3" y="689.5" width="7" height="9" rx="1" fill="#fff3c4"/><rect x="1469" y="651.6" width="76" height="70.4" fill="#6b4a14"/><rect x="1496" y="665.6" width="7" height="9" rx="1" fill="#fff3c4"/><rect x="1496" y="687.6" width="7" height="9" rx="1" fill="#fff3c4"/><rect x="1548.2" y="629.3" width="108.6" height="92.7" fill="#6b4a14"/><rect x="1575.2" y="643.3" width="7" height="9" rx="1" fill="#fff3c4"/><rect x="1611.2" y="643.3" width="7" height="9" rx="1" fill="#fff3c4"/><rect x="1557.2" y="665.3" width="7" height="9" rx="1" fill="#fff3c4"/><g fill="#4a330c"><rect x="540" y="550" width="520" height="170"/><path d="M520 550 L800 460 L1080 550Z"/><rect x="740" y="420" width="120" height="60"/><path d="M740 420 Q800 330 860 420Z"/><rect x="797" y="300" width="6" height="40"/></g><rect x="570" y="570" width="18" height="150" fill="#fff3c9" opacity=".35"/><rect x="632" y="570" width="18" height="150" fill="#fff3c9" opacity=".35"/><rect x="694" y="570" width="18" height="150" fill="#fff3c9" opacity=".35"/><rect x="756" y="570" width="18" height="150" fill="#fff3c9" opacity=".35"/><rect x="818" y="570" width="18" height="150" fill="#fff3c9" opacity=".35"/><rect x="880" y="570" width="18" height="150" fill="#fff3c9" opacity=".35"/><rect x="942" y="570" width="18" height="150" fill="#fff3c9" opacity=".35"/><rect x="1004" y="570" width="18" height="150" fill="#fff3c9" opacity=".35"/><path d="M0 900 L0 800 L0 770.9 L40 774.9 L80 777.7 L120 779 L160 779.1 L200 778.3 L240 777 L280 776 L320 775.7 L360 776.6 L400 779.1 L440 783 L480 788.2 L520 794.1 L560 800 L600 805.2 L640 809.1 L680 810.9 L720 810.4 L760 807.6 L800 802.6 L840 795.9 L880 788.4 L920 780.7 L960 773.6 L1000 767.9 L1040 763.9 L1080 761.8 L1120 761.6 L1160 762.9 L1200 765.2 L1240 767.8 L1280 770.1 L1320 771.6 L1360 772 L1400 771.1 L1440 769.2 L1480 766.6 L1520 764 L1560 761.9 L1600 761.1 L1600 900 Z" fill="#3a2808"/><g transform="translate(260 250) rotate(-14) scale(1.4)"><path d="M0 0 L60 -24 L120 0 L60 24Z" fill="#4a330c"/><path d="M28 12 V36 Q60 52 92 36 V12 L60 24Z" fill="#4a330c"/><path d="M60 0 Q96 6 100 34" fill="none" stroke="#0B4D2C" stroke-width="3"/><circle cx="100" cy="38" r="5" fill="#0B4D2C"/></g><g transform="translate(1250 200) rotate(-14) scale(1.1)"><path d="M0 0 L60 -24 L120 0 L60 24Z" fill="#4a330c"/><path d="M28 12 V36 Q60 52 92 36 V12 L60 24Z" fill="#4a330c"/><path d="M60 0 Q96 6 100 34" fill="none" stroke="#0B4D2C" stroke-width="3"/><circle cx="100" cy="38" r="5" fill="#0B4D2C"/></g><path d="M180.4883651626188 210 q9.9 -9.9 19.8 0 q9.9 -9.9 19.8 0" fill="none" stroke="#3a2808" stroke-width="2.64" stroke-linecap="round"/><path d="M217.8883651626188 225.4 q9.9 -9.9 19.8 0 q9.9 -9.9 19.8 0" fill="none" stroke="#3a2808" stroke-width="2.64" stroke-linecap="round"/><path d="M255.28836516261882 210 q9.9 -9.9 19.8 0 q9.9 -9.9 19.8 0" fill="none" stroke="#3a2808" stroke-width="2.64" stroke-linecap="round"/><rect width="1600" height="900" fill="url(#fade)"/></svg>