<svg xmlns="http://www.w3.org/2000/svg" viewBox="0 0 1600 900" preserveAspectRatio="xMidYMid slice" role="img" aria-hidden="true"><defs><linearGradient id="sky" x1="0" y1="0" x2="0" y2="1"><stop offset="0%" stop-color="#5b4b8a"/><stop offset="33.3%" stop-color="#d9667d"/><stop offset="66.7%" stop-color="#ff8f6b"/><stop offset="100%" stop-color="#ffb36b"/></linearGradient><radialGradient id="glow" cx="0.225" cy="0.4" r=".55"><stop offset="0" stop-color="#ffc56b" stop-opacity=".75"/><stop offset="1" stop-color="#ffc56b" stop-opacity="0"/></radialGradient><linearGradient id="fade" x1="0" y1="0" x2="0" y2="1"><stop offset=".55" stop-color="#000" stop-opacity="0"/><stop offset="1" stop-color="#000" stop-opacity=".28"/></linearGradient></defs><rect width="1600" height="900" fill="url(#sky)"/><rect width="1600" height="900" fill="url(#glow)"/><circle cx="360" cy="360" r="90" fill="#ffe4a3"/><path d="M0 900 L0 640 L0 574.5 L40 583.5 L80 589.8 L120 592.9 L160 593.1 L200 591.2 L240 588.3 L280 585.9 L320 585.3 L360 587.4 L400 593 L440 601.8 L480 613.5 L520 626.7 L560 640 L600 651.8 L640 660.4 L680 664.5 L720 663.4 L760 657 L800 645.8 L840 630.9 L880 613.9 L920 596.6 L960 580.7 L1000 567.7 L1040 558.7 L1080 554.1 L1120 553.6 L1160 556.6 L1200 561.7 L1240 567.6 L1280 572.8 L1320 576.2 L1360 576.9 L1400 575 L1440 570.6 L1480 564.9 L1520 559 L1560 554.4 L1600 552.5 L1600 900 Z" fill="#7a4a7d"/><rect x="0" y="655.7" width="51" height="66.3" fill="#4a2f5e"/><rect x="27" y="669.7" width="7" height="9" rx="1" fill="#ffe08a"/><rect x="9" y="691.7" width="7" height="9" rx="1" fill="#ffe08a"/><rect x="27" y="691.7" width="7" height="9" rx="1" fill="#ffe08a"/><rect x="53.7" y="575.4" width="94.7" height="146.6" fill="#4a2f5e"/><rect x="80.7" y="589.4" width="7" height="9" rx="1" fill="#ffe08a"/><rect x="116.7" y="589.4" width="7" height="9" rx="1" fill="#ffe08a"/><rect x="134.7" y="589.4" width="7" height="9" rx="1" fill="#ffe08a"/><rect x="80.7" y="611.4" width="7" height="9" rx="1" fill="#ffe08a"/><rect x="134.7" y="633.4" width="7" height="9" rx="1" fill="#ffe08a"/><rect x="62.7" y="655.4" width="7" height="9" rx="1" fill="#ffe08a"/><rect x="80.7" y="655.4" width="7" height="9" rx="1" fill="#ffe08a"/><rect x="116.7" y="655.4" width="7" height="9" rx="1" fill="#ffe08a"/><rect x="80.7" y="677.4" width="7" height="9" rx="1" fill="#ffe08a"/><rect x="98.7" y="677.4" width="7" height="9" rx="1" fill="#ffe08a"/><rect x="151" y="604.4" width="94.5" height="117.6" fill="#4a2f5e"/><rect x="214" y="618.4" width="7" height="9" rx="1" fill="#ffe08a"/><rect x="232" y="618.4" width="7" height="9" rx="1" fill="#ffe08a"/><rect x="232" y="640.4" width="7" height="9" rx="1" fill="#ffe08a"/><rect x="178" y="662.4" width="7" height="9" rx="1" fill="#ffe08a"/><rect x="246.6" y="645.2" width="59.5" height="76.8" fill="#4a2f5e"/><rect x="273.6" y="681.2" width="7" height="9" rx="1" fill="#ffe08a"/><rect x="291.6" y="681.2" width="7" height="9" rx="1" fill="#ffe08a"/><rect x="291.6" y="703.2" width="7" height="9" rx="1" fill="#ffe08a"/><rect x="308.2" y="653.2" width="101" height="68.8" fill="#4a2f5e"/><rect x="389.2" y="689.2" width="7" height="9" rx="1" fill="#ffe08a"/><rect x="408.7" y="558.7" width="107.4" height="163.3" fill="#4a2f5e"/><rect x="453.7" y="572.7" width="7" height="9" rx="1" fill="#ffe08a"/><rect x="453.7" y="594.7" width="7" height="9" rx="1" fill="#ffe08a"/><rect x="489.7" y="594.7" width="7" height="9" rx="1" fill="#ffe08a"/><rect x="417.7" y="638.7" width="7" height="9" rx="1" fill="#ffe08a"/><rect x="489.7" y="660.7" width="7" height="9" rx="1" fill="#ffe08a"/><rect x="435.7" y="682.7" width="7" height="9" rx="1" fill="#ffe08a"/><rect x="453.7" y="704.7" width="7" height="9" rx="1" fill="#ffe08a"/><rect x="521" y="545.9" width="83" height="176.1" fill="#4a2f5e"/><rect x="584" y="603.9" width="7" height="9" rx="1" fill="#ffe08a"/><rect x="566" y="625.9" width="7" height="9" rx="1" fill="#ffe08a"/><rect x="530" y="647.9" width="7" height="9" rx="1" fill="#ffe08a"/><rect x="607.1" y="534.5" width="96.7" height="187.5" fill="#4a2f5e"/><rect x="616.1" y="548.5" width="7" height="9" rx="1" fill="#ffe08a"/><rect x="670.1" y="548.5" width="7" height="9" rx="1" fill="#ffe08a"/><rect x="616.1" y="570.5" width="7" height="9" rx="1" fill="#ffe08a"/><rect x="616.1" y="592.5" width="7" height="9" rx="1" fill="#ffe08a"/><rect x="634.1" y="592.5" width="7" height="9" rx="1" fill="#ffe08a"/><rect x="670.1" y="592.5" width="7" height="9" rx="1" fill="#ffe08a"/><rect x="634.1" y="680.5" width="7" height="9" rx="1" fill="#ffe08a"/><rect x="688.1" y="680.5" width="7" height="9" rx="1" fill="#ffe08a"/><rect x="707.8" y="571.1" width="77.5" height="150.9" fill="#4a2f5e"/><rect x="716.8" y="585.1" width="7" height="9" rx="1" fill="#ffe08a"/><rect x="734.8" y="585.1" width="7" height="9" rx="1" fill="#ffe08a"/><rect x="752.8" y="607.1" width="7" height="9" rx="1" fill="#ffe08a"/><rect x="770.8" y="607.1" width="7" height="9" rx="1" fill="#ffe08a"/><rect x="752.8" y="629.1" width="7" height="9" rx="1" fill="#ffe08a"/><rect x="752.8" y="651.1" width="7" height="9" rx="1" fill="#ffe08a"/><rect x="752.8" y="673.1" width="7" height="9" rx="1" fill="#ffe08a"/><rect x="752.8" y="695.1" width="7" height="9" rx="1" fill="#ffe08a"/><rect x="788.8" y="616" width="118" height="106" fill="#4a2f5e"/><rect x="815.8" y="630" width="7" height="9" rx="1" fill="#ffe08a"/><rect x="833.8" y="630" width="7" height="9" rx="1" fill="#ffe08a"/><rect x="869.8" y="652" width="7" height="9" rx="1" fill="#ffe08a"/><rect x="887.8" y="652" width="7" height="9" rx="1" fill="#ffe08a"/><rect x="797.8" y="674" width="7" height="9" rx="1" fill="#ffe08a"/><rect x="833.8" y="696" width="7" height="9" rx="1" fill="#ffe08a"/><rect x="869.8" y="696" width="7" height="9" rx="1" fill="#ffe08a"/><rect x="887.8" y="696" width="7" height="9" rx="1" fill="#ffe08a"/><rect x="911.1" y="578.4" width="91" height="143.6" fill="#4a2f5e"/><rect x="956.1" y="614.4" width="7" height="9" rx="1" fill="#ffe08a"/><rect x="956.1" y="636.4" width="7" height="9" rx="1" fill="#ffe08a"/><rect x="956.1" y="658.4" width="7" height="9" rx="1" fill="#ffe08a"/><rect x="974.1" y="680.4" width="7" height="9" rx="1" fill="#ffe08a"/><rect x="920.1" y="702.4" width="7" height="9" rx="1" fill="#ffe08a"/><rect x="956.1" y="702.4" width="7" height="9" rx="1" fill="#ffe08a"/><rect x="974.1" y="702.4" width="7" height="9" rx="1" fill="#ffe08a"/><rect x="1004.9" y="504.5" width="101.6" height="217.5" fill="#4a2f5e"/><rect x="1031.9" y="518.5" width="7" height="9" rx="1" fill="#ffe08a"/><rect x="1067.9" y="518.5" width="7" height="9" rx="1" fill="#ffe08a"/><rect x="1085.9" y="518.5" width="7" height="9" rx="1" fill="#ffe08a"/><rect x="1013.9" y="540.5" width="7" height="9" rx="1" fill="#ffe08a"/><rect x="1031.9" y="562.5" width="7" height="9" rx="1" fill="#ffe08a"/><rect x="1067.9" y="562.5" width="7" height="9" rx="1" fill="#ffe08a"/><rect x="1031.9" y="584.5" width="7" height="9" rx="1" fill="#ffe08a"/><rect x="1013.9" y="606.5" width="7" height="9" rx="1" fill="#ffe08a"/><rect x="1067.9" y="606.5" width="7" height="9" rx="1" fill="#ffe08a"/><rect x="1067.9" y="628.5" width="7" height="9" rx="1" fill="#ffe08a"/><rect x="1085.9" y="628.5" width="7" height="9" rx="1" fill="#ffe08a"/><rect x="1013.9" y="650.5" width="7" height="9" rx="1" fill="#ffe08a"/><rect x="1031.9" y="650.5" width="7" height="9" rx="1" fill="#ffe08a"/><rect x="1049.9" y="672.5" width="7" height="9" rx="1" fill="#ffe08a"/><rect x="1067.9" y="672.5" width="7" height="9" rx="1" fill="#ffe08a"/><rect x="1108.2" y="520.5" width="89.7" height="201.5" fill="#4a2f5e"/><rect x="1171.2" y="556.5" width="7" height="9" rx="1" fill="#ffe08a"/><rect x="1117.2" y="578.5" width="7" height="9" rx="1" fill="#ffe08a"/><rect x="1171.2" y="600.5" width="7" height="9" rx="1" fill="#ffe08a"/><rect x="1117.2" y="622.5" width="7" height="9" rx="1" fill="#ffe08a"/><rect x="1135.2" y="644.5" width="7" height="9" rx="1" fill="#ffe08a"/><rect x="1153.2" y="644.5" width="7" height="9" rx="1" fill="#ffe08a"/><rect x="1171.2" y="688.5" width="7" height="9" rx="1" fill="#ffe08a"/><rect x="1198.6" y="592.7" width="54" height="129.3" fill="#4a2f5e"/><rect x="1225.6" y="606.7" width="7" height="9" rx="1" fill="#ffe08a"/><rect x="1225.6" y="650.7" width="7" height="9" rx="1" fill="#ffe08a"/><rect x="1251.7" y="653.6" width="63.2" height="68.4" fill="#4a2f5e"/><rect x="1280.8" y="627.6" width="4" height="28" fill="#4a2f5e"/><rect x="1319.1" y="633.1" width="80.2" height="88.9" fill="#4a2f5e"/><rect x="1346.1" y="669.1" width="7" height="9" rx="1" fill="#ffe08a"/><rect x="1364.1" y="669.1" width="7" height="9" rx="1" fill="#ffe08a"/><rect x="1364.1" y="691.1" width="7" height="9" rx="1" fill="#ffe08a"/><rect x="1382.1" y="691.1" width="7" height="9" rx="1" fill="#ffe08a"/><rect x="1402.1" y="550.1" width="99" height="171.9" fill="#4a2f5e"/><rect x="1411.1" y="564.1" width="7" height="9" rx="1" fill="#ffe08a"/><rect x="1483.1" y="564.1" width="7" height="9" rx="1" fill="#ffe08a"/><rect x="1447.1" y="586.1" width="7" height="9" rx="1" fill="#ffe08a"/><rect x="1411.1" y="630.1" width="7" height="9" rx="1" fill="#ffe08a"/><rect x="1483.1" y="630.1" width="7" height="9" rx="1" fill="#ffe08a"/><rect x="1411.1" y="652.1" width="7" height="9" rx="1" fill="#ffe08a"/><rect x="1465.1" y="674.1" width="7" height="9" rx="1" fill="#ffe08a"/><rect x="1483.1" y="674.1" width="7" height="9" rx="1" fill="#ffe08a"/><rect x="1483.1" y="696.1" width="7" height="9" rx="1" fill="#ffe08a"/><rect x="1501.8" y="497.3" width="79.5" height="224.7" fill="#4a2f5e"/><rect x="1564.8" y="533.3" width="7" height="9" rx="1" fill="#ffe08a"/><rect x="1528.8" y="577.3" width="7" height="9" rx="1" fill="#ffe08a"/><rect x="1546.8" y="577.3" width="7" height="9" rx="1" fill="#ffe08a"/><rect x="1510.8" y="621.3" width="7" height="9" rx="1" fill="#ffe08a"/><rect x="1528.8" y="665.3" width="7" height="9" rx="1" fill="#ffe08a"/><rect x="1510.8" y="687.3" width="7" height="9" rx="1" fill="#ffe08a"/><rect x="1585.3" y="643.3" width="72.2" height="78.7" fill="#4a2f5e"/><rect x="1594.3" y="657.3" width="7" height="9" rx="1" fill="#ffe08a"/><rect x="1612.3" y="657.3" width="7" height="9" rx="1" fill="#ffe08a"/><rect x="1594.3" y="679.3" width="7" height="9" rx="1" fill="#ffe08a"/><rect x="1630.3" y="679.3" width="7" height="9" rx="1" fill="#ffe08a"/><rect x="1612.3" y="701.3" width="7" height="9" rx="1" fill="#ffe08a"/><path fill="#3a2550" d="M1020 720 V340 H1050 V250 H1080 V200 H1110 V290 H1130 V720Z"/><rect x="1084" y="130" width="5" height="72" fill="#3a2550"/><rect x="1098" y="150" width="5" height="52" fill="#3a2550"/><path fill="#3a2550" d="M780 720 V420 H800 V360 H814 V300 H828 V250 H838 V160 H842 V250 H852 V300 H866 V360 H880 V420 H900 V720Z"/><path d="M0 900 L0 800 L0 783.3 L40 786.9 L80 791.5 L120 796.7 L160 801.7 L200 805.9 L240 808.6 L280 809.2 L320 807.5 L360 803.6 L400 797.7 L440 790.4 L480 782.4 L520 774.6 L560 767.7 L600 762.3 L640 758.9 L680 757.5 L720 758.1 L760 760.2 L800 763.3 L840 766.7 L880 769.7 L920 771.8 L960 772.7 L1000 772.4 L1040 771.1 L1080 769.2 L1120 767.2 L1160 765.8 L1200 765.6 L1240 767 L1280 770.2 L1320 775.2 L1360 781.5 L1400 788.7 L1440 796 L1480 802.6 L1520 807.8 L1560 811 L1600 811.8 L1600 900 Z" fill="#2a1c3c"/><path d="M180.12209108110713 210 q9.9 -9.9 19.8 0 q9.9 -9.9 19.8 0" fill="none" stroke="#2a1c3c" stroke-width="2.64" stroke-linecap="round"/><path d="M217.52209108110713 225.4 q9.9 -9.9 19.8 0 q9.9 -9.9 19.8 0" fill="none" stroke="#2a1c3c" stroke-width="2.64" stroke-linecap="round"/><path d="M254.92209108110714 210 q9.9 -9.9 19.8 0 q9.9 -9.9 19.8 0" fill="none" stroke="#2a1c3c" stroke-width="2.64" stroke-linecap="round"/><rect width="1600" height="900" fill="url(#fade)"/></svg>